#!OML:ASF \\sashay\E\Suitcase\Project 1\Capture day 1\Session 1\Male1.ASF
:FULLY-SPECIFIED
:DEGREES
1
root 0.496171 17.5445 19.5435 11.8257 -1.90982 0.159006
lowerback 13.1393 -3.26703 12.8127
upperback 6.12168 -2.52676 13.475
thorax -0.654561 -1.25261 7.74645
lowerneck -8.0923 -11.9333 -4.54219
upperneck 30.3013 -16.1093 -0.710553
head 11.5042 -7.72952 -1.45337
rclavicle -2.54444e-014 -1.27222e-014
rhumerus -7.44764 -11.5963 -60.1338
rradius 25.602
rwrist 3.08854
rhand -34.9392 33.4681
rfingers 7.12502
rthumb -8.08609 3.64277
lclavicle -2.54444e-014 -1.27222e-014
lhumerus -31.3871 -12.1599 97.93
lradius 54.8828
lwrist -1.1705
lhand -7.48563 42.1684
lfingers 7.12502
lthumb 18.4037 71.3178
rfemur -15.9251 2.63904 19.565
rtibia 14.9555
rfoot -9.26329 -11.1749
rtoes 12.0506
lfemur -13.2223 -2.38141 -17.2085
ltibia 12.7139
lfoot -10.8795 4.18205
ltoes -3.05968
2
root 0.489078 17.547 19.5421 11.7705 -1.73997 0.301996
lowerback 13.3015 -3.22583 12.8793
upperback 6.1549 -2.42977 13.5328
thorax -0.708934 -1.20411 7.77219
lowerneck -8.20853 -11.9555 -4.19658
upperneck 30.2374 -16.0821 -1.09197
head 11.4273 -7.72557 -1.63316
rclavicle 1.27222e-014 4.13472e-014
rhumerus -7.52477 -12.8237 -60.0899
rradius 26.0054
rwrist 4.33111
rhand -35.7768 32.9391
rfingers 7.12502
rthumb -8.89441 3.14656
lclavicle 1.27222e-014 4.13472e-014
lhumerus -31.4401 -12.309 98.0602
lradius 55.057
lwrist -0.993274
lhand -7.1425 42.2502
lfingers 7.12502
lthumb 18.7338 71.3681
rfemur -16.2139 2.49564 19.4956
rtibia 15.5954
rfoot -9.42522 -11.1435
rtoes 10.3559
lfemur -12.9886 -2.42812 -17.324
ltibia 12.2693
lfoot -10.6201 3.97693
ltoes -3.47186
3
root 0.494403 17.5452 19.5388 11.6893 -1.64841 0.840488
lowerback 13.4648 -3.26861 12.6271
upperback 6.23518 -2.49337 13.4233
thorax -0.706861 -1.23601 7.80195
lowerneck -8.53645 -11.8191 -4.07578
upperneck 30.6508 -15.9071 -1.15804
head 11.632 -7.62382 -1.69556
rclavicle -3.81667e-014 9.85972e-014
rhumerus -7.19042 -13.067 -60.2008
rradius 25.5803
rwrist 4.96986
rhand -36.9733 33.6982
rfingers 7.12502
rthumb -10.0489 3.95814
lclavicle -3.81667e-014 9.85972e-014
lhumerus -31.4035 -12.0737 97.9071
lradius 55.2372
lwrist -1.35561
lhand -6.27204 42.3561
lfingers 7.12502
lthumb 19.5708 71.3911
rfemur -16.2741 2.23897 18.886
rtibia 15.9668
rfoot -9.72939 -11.1156
rtoes 11.429
lfemur -12.8591 -2.49134 -17.9472
ltibia 12.0979
lfoot -10.576 3.8007
ltoes -4.20053
4
root 0.488544 17.5486 19.5383 11.6908 -1.46746 0.749066
lowerback 13.5403 -3.32015 12.879
upperback 6.19738 -2.50083 13.5314
thorax -0.789032 -1.23873 7.7974
lowerneck -8.25616 -11.7478 -4.34864
upperneck 30.7548 -15.7724 -1.1395
head 11.6449 -7.59105 -1.61701
rclavicle 0 -1.11319e-013
rhumerus -7.28955 -13.096 -60.1216
rradius 25.7142
rwrist 4.91397
rhand -37.5603 34.8615
rfingers 7.12502
rthumb -10.6152 5.14961
lclavicle 0 -1.11319e-013
lhumerus -31.5522 -11.8689 97.9449
lradius 55.3765
lwrist -1.20211
lhand -6.42319 42.1334
lfingers 7.12502
lthumb 19.4255 71.1831
rfemur -16.4196 2.13782 19.0572
rtibia 16.2336
rfoot -9.79888 -11.2148
rtoes 10.0259
lfemur -12.8717 -2.75289 -17.7759
ltibia 12.0514
lfoot -10.4787 3.85867
ltoes -2.59852
5
root 0.493724 17.5486 19.5315 11.711 -1.46133 1.11348
lowerback 13.6146 -3.38255 12.6567
upperback 6.20555 -2.59187 13.6155
thorax -0.804626 -1.29035 8.03655
lowerneck -8.36919 -11.6339 -4.70958
upperneck 30.9235 -15.4896 -1.33603
head 11.7459 -7.52108 -1.6148
rclavicle -1.59028e-014 3.18055e-015
rhumerus -7.00578 -12.9781 -59.9444
rradius 25.9387
rwrist 5.15939
rhand -37.5997 35.3541
rfingers 7.12502
rthumb -10.6532 5.64419
lclavicle -1.59028e-014 3.18055e-015
lhumerus -31.583 -11.3363 98.0856
lradius 55.5643
lwrist -0.948328
lhand -6.14417 42.5854
lfingers 7.12502
lthumb 19.6938 71.6078
rfemur -16.6374 2.04064 18.6013
rtibia 16.5716
rfoot -9.97379 -11.1776
rtoes 11.5612
lfemur -12.943 -2.62948 -18.2082
ltibia 12.0115
lfoot -11.3511 3.59058
ltoes -2.90199
6
root 0.484505 17.5498 19.5285 11.7435 -1.16835 0.877121
lowerback 13.6188 -3.47834 13.0119
upperback 6.22434 -2.67035 13.7077
thorax -0.78621 -1.32327 7.96248
lowerneck -8.45383 -11.4916 -4.81465
upperneck 31.0669 -15.3385 -1.10462
head 11.8499 -7.43148 -1.51292
rclavicle -3.18055e-015 6.67916e-014
rhumerus -6.95311 -13.2616 -60.1078
rradius 26.0714
rwrist 5.47301
rhand -38.2489 35.5796
rfingers 7.12502
rthumb -11.2793 5.9029
lclavicle -3.18055e-015 6.67916e-014
lhumerus -31.6577 -11.4541 98.0373
lradius 55.5964
lwrist -0.778316
lhand -7.45061 42.5637
lfingers 7.12502
lthumb 18.4374 71.7099
rfemur -16.7767 1.82009 18.9755
rtibia 16.7371
rfoot -9.8581 -11.214
rtoes 9.74783
lfemur -13.1222 -2.73719 -17.869
ltibia 12.1591
lfoot -10.4615 3.44083
ltoes -1.2166
